<?xml version="1.0" encoding="UTF-8"?>
<svg width="100mm" height="100mm" version="1.1" viewBox="0 0 100 100" xmlns="http://www.w3.org/2000/svg" xmlns:cc="http://creativecommons.org/ns#" xmlns:dc="http://purl.org/dc/elements/1.1/" xmlns:rdf="http://www.w3.org/1999/02/22-rdf-syntax-ns#">
 <metadata>
  <rdf:RDF>
   <cc:Work rdf:about="">
    <dc:format>image/svg+xml</dc:format>
    <dc:type rdf:resource="http://purl.org/dc/dcmitype/StillImage"/>
    <dc:title/>
   </cc:Work>
  </rdf:RDF>
 </metadata>
 <rect x="1.4563" y="1.4563" width="97.087" height="97.087" ry="30.091" fill="#1b1bac" stroke="#1a1a1a" stroke-linecap="round" stroke-linejoin="round" stroke-width="2.9126"/>
 <path d="m40.196 80.97c-4.2591-2.9028-4.9857-3.1363-5.8944-1.8944-0.66335 0.90653-2.2967 1.3726-4.537 1.2946-4.0318-0.14041-5.0708-1.5635-6.9335-9.4963l-1.152-4.9061-1.2639 2.4123c-2.3674 4.5184-3.3268 2.8997-2.7357-4.6157 0.74734-9.5019 2.891-15.625 14.419-41.187 1.5001-3.3262 3.8725-7.1447 5.272-8.4856 2.2802-2.1845 3.0002-2.378 6.9276-1.8616 5.4649 0.71859 7.8336 0.7226 13.023 0.022 3.8405-0.51845 4.3472-0.32951 7.8351 2.9216 3.4296 3.1967 4.0763 4.6049 8.0518 17.532 2.3775 7.7308 5.5228 17.704 6.9895 22.162 1.9862 6.0374 2.5211 9.0171 2.096 11.676-0.75472 4.7198-2.0602 7.0152-3.644 6.4074-0.84562-0.3245-1.9291 0.75868-3.1471 3.1462-2.2223 4.3561-3.3187 5.1861-4.3697 3.308-0.66856-1.1946-1.1009-1.0638-2.9343 0.88777-2.7113 2.886-3.6478 2.8916-3.6478 0.02178 0-1.2469-0.2031-2.2671-0.45132-2.2671s-2.4394 1.4283-4.8692 3.1739c-3.7838 2.7184-5.1182 3.1657-9.2972 3.1169-4.0711-0.04757-5.684-0.6054-9.7372-3.3679zm15.119-4.9854c0.27135-1.4116-0.17216-1.5352-3.6155-1.0074-4.4759 0.68613-4.7537 0.82168-4.0424 1.9726 0.28458 0.46045 2.0544 0.79367 3.933 0.74046 2.5025-0.07091 3.4983-0.52688 3.7249-1.7057zm-21.397-6.0592c-0.45467-3.0978 0.36693-3.543 2.1657-1.1735 2.4463 3.2226 1.382-2.8036-1.1544-6.5362-2.713-3.9926-3.5977-9.8211-2.3456-15.455 0.63642-2.8636 1.1749-3.57 2.5576-3.3552 0.96326 0.14969 8.5388 0.30682 16.834 0.34918l15.083 0.07705 0.55989 4.0849c1.0319 7.5287 0.63857 11.41-1.4839 14.641-3.5762 5.4441-4.2055 6.7535-3.6656 7.627 0.29034 0.46977 1.3136-0.11955 2.2739-1.3096l1.746-2.1637-0.35842 2.9472c-0.19713 1.621-0.071 2.9472 0.28031 2.9472 2.5919 0 3.9878-7.8661 3.7388-21.068-0.18099-9.594-0.23323-9.8112-3.6665-15.241l-3.4829-5.5084-1.1483 2.7721c-0.63153 1.5247-1.4594 2.7721-1.8397 2.7721-0.38032 0-1.6085-2.2593-2.7292-5.0207-1.8772-4.6252-2.159-4.9109-3.5774-3.6273-2.0577 1.8622-2.7571 1.7556-2.7571-0.42033 0-2.8522-1.1275-2.137-4.3144 2.7368-1.6248 2.4848-3.3579 4.5179-3.8514 4.5179s-1.4216-1.285-2.0625-2.8557l-1.1652-2.8557-3.7958 4.5337c-2.0877 2.4935-4.1665 5.5129-4.6196 6.7097-1.5372 4.0605-2.0507 12.98-1.0128 17.592 0.5612 2.4938 1.1066 6.5792 1.2121 9.0787 0.19761 4.684 1.0786 7.1418 2.2914 6.3923 0.38113-0.23556 0.51066-1.6705 0.28783-3.1887zm6.602-29.059c-5.7909-0.48258-6.4409-1.402-3.3877-4.7915 1.3868-1.5395 1.554-1.496 3.4661 0.90197 1.9268 2.4164 2.0806 2.4548 3.7572 0.93744 2.137-1.934 4.4087-2.0422 5.0991-0.24302 0.44482 1.1592 0.87159 1.1338 3.1767-0.18922 2.2363-1.2835 2.8959-1.3349 4.1173-0.3212 2.248 1.8657 1.7559 3.6882-1.0393 3.8488-5.6813 0.32643-10.047 0.28523-15.189-0.14328zm22.746-0.78512c-0.39064-0.63207-0.46535-1.3941-0.16603-1.6934 0.81158-0.81158 1.6965 0.38205 1.2581 1.6971-0.30717 0.92151-0.52076 0.92079-1.0921-0.0033zm-9.597-7.3764c0-0.49875 0.40808-0.90683 0.90684-0.90683s0.90683 0.40808 0.90683 0.90683c0 0.49877-0.40808 0.90684-0.90683 0.90684-0.49876 0-0.90684-0.40807-0.90684-0.90684zm3.6273 38.405c0-1.4434-3.5081-2.981-6.8013-2.981-3.1622 0-6.8013 1.5258-6.8013 2.8517 0 0.24329 3.0606 0.50052 6.8013 0.57163 3.7407 0.07113 6.8013-0.12796 6.8013-0.44235zm-3.8087-6.8474c1.825-1.825 1.227-2.5216-1.6679-1.9426l-2.7561 0.55121 0.21886-5.9278c0.2381-6.4486-0.50312-8.0218-4.8347-10.262-2.7014-1.397-6.384-0.97172-7.9526 0.91828-0.66986 0.80714-0.21197 1.642 1.6595 3.0256 2.362 1.7463 2.7542 1.792 4.5542 0.53128 1.5576-1.091 2.246-1.1502 3.2909-0.28302 1.7053 1.4153 1.6765 4.3371-0.08424 8.5511-1.0859 2.5989-1.1637 3.6552-0.34238 4.6449 1.2975 1.5634 6.4191 1.6881 7.9144 0.1928zm10.556-14.602c1.6935-1.2647 1.65-1.3708-1.1598-2.8238-2.4741-1.2794-3.2858-1.3311-5.32-0.3393-2.7078 1.3202-3.8253 3.4375-1.8142 3.4375 0.72862 0 1.8257 0.60353 2.4379 1.3412 1.15 1.3857 2.2401 1.0849 5.8562-1.6156z" fill="#f9f9f9" stroke-width=".90684"/>
</svg>
