<?xml version="1.0" encoding="UTF-8"?>
<svg width="100mm" height="100mm" version="1.1" viewBox="0 0 100 100" xmlns="http://www.w3.org/2000/svg" xmlns:cc="http://creativecommons.org/ns#" xmlns:dc="http://purl.org/dc/elements/1.1/" xmlns:rdf="http://www.w3.org/1999/02/22-rdf-syntax-ns#">
 <metadata>
  <rdf:RDF>
   <cc:Work rdf:about="">
    <dc:format>image/svg+xml</dc:format>
    <dc:type rdf:resource="http://purl.org/dc/dcmitype/StillImage"/>
    <dc:title/>
   </cc:Work>
  </rdf:RDF>
 </metadata>
 <rect x="1.4563" y="1.4563" width="97.087" height="97.087" ry="30.091" fill="#e80000" stroke="#1a1a1a" stroke-linecap="round" stroke-linejoin="round" stroke-width="2.9126"/>
 <path d="m42.083 90.212c-5.3423-0.51798-6.7019-1.4376-7.6376-5.1657-0.37864-1.5086-1.7334-5.0416-3.0106-7.8511s-2.9498-6.9414-3.7168-9.1819c-0.76701-2.2406-3.1236-5.722-5.2368-7.7364-3.3149-3.16-3.8422-4.2821-3.8422-8.1755 0-2.482 0.70206-5.5151 1.5601-6.7402 1.4498-2.0699 1.3521-2.5147-1.3821-6.2891-3.2313-4.4606-4.9303-14.324-3.4239-19.877 1.0497-3.8695 2.9939-4.4801 3.8174-1.1989 1.052 4.1917 2.8405 5.0015 5.838 2.6436 3.1309-2.4628 8.951-4.6058 18.261-6.7241 6.5763-1.4963 7.1019-1.4689 13.24 0.68995 8.1195 2.8558 15.305 6.4518 17.019 8.5174 2.0049 2.4158 3.0725 1.9726 4.7145-1.9574 0.81915-1.9605 1.703-3.5645 1.9642-3.5645 0.94178 0 4.59 8.1157 4.59 10.211 0 2.7663-1.6279 5.8882-4.8995 9.3958-2.5545 2.7388-2.5822 2.9235-1.2224 8.1475 1.9815 7.6123 1.5284 9.8427-2.9417 14.48-2.1765 2.2578-4.2949 5.2508-4.7074 6.6512-0.41256 1.4004-1.8367 4.6048-3.1646 7.1209-1.328 2.5162-2.4145 5.1696-2.4145 5.8966 0 2.4882-4.0378 9.2394-5.8389 9.7627-3.0564 0.88799-12.769 1.4112-17.565 0.94615zm9.1459-9.0237c0-3.6837 1.8668-3.9251 2.2255-0.28778 0.38177 3.8713 2.7494 5.0947 3.5958 1.8579l0.59455-2.2736 1.7417 2.309c1.7295 2.2928 1.757 2.2586 3.9211-4.8663 2.6647-8.7728 2.7228-13.711 0.22624-19.209-2.125-4.6797-3.1075-5.515-7.5569-6.425-4.2736-0.87404-4.5828-2.823-0.42508-2.6786 3.4057 0.11826 6.7241 2.5894 8.8755 6.6093 1.2473 2.3306 3.1095 2.84 3.0739 0.84091-0.01242-0.70017-0.91886-2.4188-2.0142-3.8191-2.7431-3.5069-2.6092-3.798 2.1142-4.596 3.1711-0.53576 4.6128-1.4585 6.1068-3.9087 3.4013-5.5782 2.7606-6.7719-3.6351-6.7719-4.9678 0-6.0429 0.40157-9.544 3.5645-4.5462 4.1072-7.5049 4.5085-9.7377 1.3208l-1.5716-2.2437-2.0904 2.2437c-2.6633 2.8587-7.2061 2.9066-9.7436 0.10261-3.0459-3.3657-7.358-5.1906-10.588-4.4811-3.9315 0.86349-4.4056 2.796-1.671 6.8111 2.0171 2.9615 2.8263 3.3646 6.5958 3.2853l4.2967-0.09036-2.6914 2.8092c-4.3642 4.5552-2.3588 5.3437 2.6251 1.0322 3.417-2.9561 4.9178-3.6909 5.8992-2.8884 0.93194 0.76213 1.6604 0.73219 2.4952-0.10259 1.7543-1.7543 2.8085-1.4323 2.8085 0.85792 0 1.5916-0.67896 2.0369-3.1059 2.0369-6.3066 0-13.175 6.1662-13.185 11.837-0.0057 3.2018 4.9839 17.979 6.6385 19.661 1.2378 1.2582 1.5209 1.218 2.1029-0.29857 0.62426-1.6268 0.80482-1.6327 2.5187-0.08159 1.747 1.581 1.8816 1.4601 2.5037-2.2475 0.91723-5.4672 1.3349-6.4088 1.4286-3.2208 0.04425 1.5039 0.54629 3.9598 1.1157 5.4575 0.8589 2.2591 1.2927 2.5094 2.5461 1.4693 0.83093-0.68961 1.5108-2.3164 1.5108-3.6151zm-12.605-21.215c-0.43646-1.7209-0.30736-3.3883 0.31017-4.0058 1.7067-1.7067 2.2942-0.14885 1.3319 3.5323l-0.89442 3.4216zm6.5097 0.73982c-0.0086-1.2145-0.29378-2.9331-0.63378-3.8191-0.40565-1.0571-0.05553-1.6109 1.0184-1.6109 1.8405 0 2.2096 3.6481 0.61819 6.1106-0.80434 1.2446-0.99014 1.1185-1.0028-0.68053zm6.095-1.8055c0-1.9935 0.4583-3.6246 1.0184-3.6246 0.56013 0 1.0184 1.3478 1.0184 2.9952s-0.4583 3.2784-1.0184 3.6246c-0.6061 0.37458-1.0184-0.83812-1.0184-2.9952zm6.1262 0.70372c-0.0086-1.8204 0.4427-3.3099 1.0028-3.3099 1.2936 0 1.2936 3.0905 0 5.0922-0.74915 1.1592-0.991 0.72942-1.0028-1.7823zm-29.539-15.009c-1.4126-1.7021-0.58826-5.073 1.0005-4.0912 0.5641 0.34863 1.0256 1.3231 1.0256 2.1654 0 0.98826 0.77931 1.4185 2.1968 1.2129 1.2082-0.17524 2.3922 0.25425 2.631 0.95442 0.62821 1.8421-5.2979 1.6332-6.8539-0.24164zm34.616 0.0125c0-1.1259 0.76527-1.3491 3.0553-0.89113 2.392 0.4784 3.0553 0.25178 3.0553-1.0439 0-0.91023 0.68745-1.655 1.5277-1.655 2.0587 0 1.9249 1.3617-0.3348 3.4067-2.3538 2.1302-7.3035 2.2544-7.3035 0.18331zm-18.84-7.6656c0.34683-0.56118-0.44316-1.4286-1.7555-1.9276-1.3124-0.49897-4.5863-2.5866-7.2754-4.6392-3.6539-2.789-5.6842-3.653-8.0357-3.4192-3.4843 0.34638-5.2093 2.8589-1.9628 2.8589 1.1107 0 4.9299 1.8063 8.487 4.0141 6.599 4.0958 9.4202 4.9288 10.542 3.113zm22.571-3.6204c1.7943-1.3686 4.4387-2.4883 5.8764-2.4883 1.6446 0 2.614-0.56652 2.614-1.5276 0-0.84022-0.64996-1.5277-1.4444-1.5277-0.7944 0-2.1193-0.25901-2.9443-0.57558-0.84943-0.32596-3.0419 0.77824-5.0553 2.5461-1.9555 1.7169-4.6842 3.1217-6.0638 3.1217-2.4651 0-6.4226 3.1911-5.3222 4.2915 1.1034 1.1034 9.1353-1.3961 12.339-3.84z" fill="#f9f9f9" stroke-width="1.0184"/>
</svg>
