<?xml version="1.0" encoding="UTF-8"?>
<svg width="100mm" height="100mm" version="1.1" viewBox="0 0 100 100" xmlns="http://www.w3.org/2000/svg" xmlns:cc="http://creativecommons.org/ns#" xmlns:dc="http://purl.org/dc/elements/1.1/" xmlns:rdf="http://www.w3.org/1999/02/22-rdf-syntax-ns#">
 <metadata>
  <rdf:RDF>
   <cc:Work rdf:about="">
    <dc:format>image/svg+xml</dc:format>
    <dc:type rdf:resource="http://purl.org/dc/dcmitype/StillImage"/>
    <dc:title/>
   </cc:Work>
  </rdf:RDF>
 </metadata>
 <rect x="1.4563" y="1.4563" width="97.087" height="97.087" ry="30.091" fill="#e80000" stroke="#1a1a1a" stroke-linecap="round" stroke-linejoin="round" stroke-width="2.9126"/>
 <path d="m77.759 86.915c1.7627-1.7627 1.6622-6.0147-0.16775-7.0958-0.81272-0.48012-3.7603-2.9-6.5502-5.3775l-5.0726-4.5046 1.5919-3.8099c1.2997-3.1105 1.3366-4.1589 0.20136-5.7115-2.0696-2.8304-5.4944-1.6723-6.15 2.0797-0.30482 1.7443-1.1174 3.3588-1.8058 3.5877-2.5691 0.8545-17.956-16.781-23.54-26.981-2.7129-4.9551-7.7494-19.369-9.059-25.926-1.6995-8.5089-4.898-0.65431-5.6963 13.989-0.42395 7.7759-0.11837 11.992 1.1972 16.517 3.4596 11.901 12.475 21.519 24.824 26.483 5.9663 2.3983 8.6592 6.0515 4.4608 6.0515-1.1713 0-2.7852 0.78999-3.5866 1.7555-1.2379 1.4916-1.1446 1.984 0.62078 3.2748 2.7923 2.0418 4.1331 1.9187 7.4406-0.68296l2.7997-2.2022 4.17 2.6964c2.2935 1.483 5.3531 3.7021 6.7991 4.9313 2.9732 2.5274 5.5977 2.8501 7.5229 0.92493zm-6.0584-2.5821c-1.0507-0.93984-3.6296-2.8015-5.7309-4.137-4.5024-2.8615-5.1557-6.5186-1.2629-7.0698 1.8798-0.26615 3.8536 0.9903 7.4465 4.7401 2.8197 2.9428 4.6392 5.7526 4.2991 6.6389-0.76932 2.0048-2.3834 1.9464-4.7517-0.17211zm-31.404-25.972c-9.1185-8.9717-14.313-18.448-14.915-27.209-0.50486-7.3434 1.4049-6.1041 4.617 2.9962 3.1254 8.8546 10.823 20.347 17.399 25.976 2.4094 2.0623 4.3807 4.3166 4.3807 5.0095 0 2.9994-3.8709 0.71626-11.482-6.7723z" fill="#f9f9f9" stroke-width="1.0916"/>
</svg>
