<?xml version="1.0" encoding="UTF-8"?>
<svg width="100mm" height="100mm" version="1.1" viewBox="0 0 100 100" xmlns="http://www.w3.org/2000/svg" xmlns:cc="http://creativecommons.org/ns#" xmlns:dc="http://purl.org/dc/elements/1.1/" xmlns:rdf="http://www.w3.org/1999/02/22-rdf-syntax-ns#">
 <metadata>
  <rdf:RDF>
   <cc:Work rdf:about="">
    <dc:format>image/svg+xml</dc:format>
    <dc:type rdf:resource="http://purl.org/dc/dcmitype/StillImage"/>
    <dc:title/>
   </cc:Work>
  </rdf:RDF>
 </metadata>
 <rect x="1.4563" y="1.4563" width="97.087" height="97.087" ry="30.091" fill="#1b1bac" stroke="#1a1a1a" stroke-linecap="round" stroke-linejoin="round" stroke-width="2.9126"/>
 <path d="m47.654 90.735c-0.75147-0.10858-2.1964-0.25128-3.2109-0.31722-1.0145-0.06598-2.1283-0.22778-2.4751-0.35963-0.34678-0.13184-1.3533-0.34224-2.2368-0.46754-0.88345-0.12529-1.7167-0.31604-1.8516-0.4239-0.25181-0.20127-2.0984-0.9868-4.6481-1.9772-0.79332-0.30816-1.9718-0.89361-2.6188-1.301-0.64701-0.40737-2.151-1.2197-3.3422-1.8052-1.4233-0.69956-2.7505-1.5808-3.8712-2.5705-0.93799-0.82831-2.1969-1.935-2.7975-2.4593-0.60065-0.52432-1.2667-1.1468-1.4802-1.3834-4.012-4.4462-6.0241-7.46-7.6297-11.428-1.2077-2.9848-2.5182-6.8421-2.857-8.4088-0.13542-0.62622-0.40388-1.8559-0.59658-2.7326-0.59322-2.6989-0.33093-10.926 0.43559-13.663 0.17538-0.62622 0.53994-2.0096 0.81015-3.0742 0.44569-1.756 3.5997-8.6869 4.0914-8.9908 0.10116-0.06248 0.25237-0.38642 0.33603-0.71978 0.08365-0.33336 0.81422-1.5384 1.6234-2.6779 2.0719-2.9174 2.3622-3.2778 3.4859-4.3274 0.54902-0.51282 1.4517-1.5216 2.0059-2.2418 0.5542-0.72016 1.1395-1.3094 1.3006-1.3094 0.16114 0 0.47845-0.20495 0.70514-0.45544 0.22669-0.25049 0.53412-0.45543 0.68316-0.45543 0.14904 0 0.4662-0.21909 0.7048-0.48687 0.23859-0.26777 0.77426-0.63091 1.1904-0.80696 0.41611-0.17605 1.2469-0.66472 1.8461-1.0859 0.59928-0.42121 1.4885-0.98633 1.9761-1.2558 0.48756-0.26948 1.5013-0.84399 2.2528-1.2767 1.8522-1.0665 2.1808-1.1923 3.7908-1.4516 0.76655-0.12345 1.5808-0.39377 1.8095-0.60071 0.22867-0.20694 0.90668-0.43085 1.5067-0.49757 0.6-0.0667 1.3106-0.26423 1.5792-0.4389 0.29729-0.19338 0.72149-0.25905 1.0846-0.16791 0.328 0.08228 0.72313 0.049491 0.87807-0.072904 0.44596-0.35239 1.4565-0.53117 4.2668-0.75486 5.5651-0.44296 10.127-0.34259 11.706 0.25758 0.63823 0.24258 1.386 0.44111 1.6617 0.44117 0.81668 1.882e-4 2.9786 0.62664 4.2685 1.2369 0.661 0.3127 1.6204 0.6626 2.132 0.77755 1.6152 0.36291 8.1297 4.3198 10.291 6.2507 3.3276 2.9729 5.0269 4.6383 5.1579 5.0548 0.15274 0.48597 0.66206 1.209 1.8143 2.5756 0.39043 0.46306 1.0388 1.4055 1.4409 2.0944 0.40206 0.68885 1.1353 1.9185 1.6295 2.7326 0.49416 0.8141 1.0533 1.8388 1.2425 2.2772 1.6222 3.7584 2.3763 5.7839 2.3882 6.415 0.0052 0.29176 0.166 0.94035 0.35667 1.4413 0.19067 0.50098 0.43404 1.5257 0.54081 2.2772 0.10678 0.75148 0.326 2.1349 0.48717 3.0742 0.39595 2.3077 0.3023 8.9694-0.13852 9.853-0.1762 0.35318-0.3845 1.1244-0.46289 1.7138-0.20057 1.5079-1.4836 6.1391-2.0633 7.4478-0.16645 0.37574-0.56352 1.3411-0.8824 2.1452-0.31887 0.80413-0.71433 1.6239-0.87881 1.8218-0.16448 0.19785-0.49121 0.82086-0.72608 1.3845-0.23486 0.56361-0.54031 1.1784-0.67878 1.3663-0.13846 0.18787-0.38712 0.61292-0.55259 0.94456-0.16547 0.33162-0.735 1.1002-1.2656 1.7079-0.5306 0.60771-1.141 1.4469-1.3564 1.8648-0.21541 0.41796-0.69209 0.93032-1.0593 1.1386-0.3672 0.20826-0.71786 0.53238-0.77925 0.72026-0.06136 0.18786-0.83407 1.0077-1.7171 1.8218-0.88302 0.8141-2.1903 2.0269-2.9051 2.6951-0.71479 0.66824-1.7095 1.4751-2.2105 1.793-0.50098 0.3179-1.1158 0.76123-1.3663 0.98518-1.1605 1.0375-7.0614 3.8632-8.0676 3.8632-0.23878 0-0.9294 0.21602-1.5347 0.48003-1.0479 0.45707-2.5406 0.84358-5.3134 1.3758-0.68885 0.13222-2.3284 0.2724-3.6435 0.31151-1.3151 0.03913-2.9547 0.12341-3.6435 0.18731-0.68885 0.06395-1.8673 0.02733-2.6188-0.08101zm7.2548-3.1692c0.39347-0.12732 1.3303-0.27343 2.0817-0.3247 1.9521-0.13316 4.8173-0.74824 5.4059-1.1605 0.27627-0.19351 0.68637-0.35182 0.91135-0.35182 1.2691 0 6.1996-2.3323 7.0198-3.3206 0.14742-0.17762 0.4445-0.32295 0.66017-0.32295 0.21567 0 0.96384-0.48676 1.6626-1.0817 0.69876-0.59492 1.643-1.3378 2.0982-1.651 0.45524-0.31312 1.3085-1.0712 1.8961-1.6847 0.5876-0.61345 1.8097-1.878 2.7158-2.81 0.9061-0.93205 1.9308-2.1899 2.2772-2.7953 0.34636-0.60533 1.0436-1.6977 1.5493-2.4275 0.78513-1.1329 1.9806-3.8411 3.0485-6.9061 1.3999-4.0176 2.7818-11.864 2.4248-13.768-0.07385-0.39388-0.19091-1.6331-0.26004-2.7538-0.06911-1.1207-0.32447-2.7999-0.56744-3.7315-0.24296-0.93162-0.44175-1.8861-0.44175-2.1211 0-0.235-0.19694-0.9074-0.43764-1.4942-0.2407-0.58682-0.75526-1.938-1.1435-3.0026-0.38821-1.0646-0.79053-2.0893-0.89405-2.2772-0.10352-0.18787-0.58012-1.1101-1.0591-2.0495-0.479-0.93934-1.524-2.6982-2.3223-3.9086-1.4824-2.2478-5.4555-6.6312-7.0399-7.767-0.48429-0.34717-1.5978-1.1507-2.4746-1.7856-0.87671-0.63493-1.9527-1.3329-2.391-1.551-1.1395-0.56704-2.9087-1.561-4.0989-2.3029-1.2019-0.74916-2.8469-1.2426-7.9702-2.3911-1.4293-0.3204-2.4765-0.36048-6.4198-0.24567-5.3315 0.15522-7.2531 0.38602-9.8622 1.1846-1.002 0.30666-1.9755 0.55907-2.1633 0.5609-0.18787 0.0017-0.54049 0.15379-0.78362 0.33768-0.24311 0.18388-0.75548 0.33558-1.1386 0.33712-0.38311 0.0017-1.5164 0.37061-2.5183 0.82019-1.002 0.44956-2.6336 1.1697-3.6258 1.6002-0.99223 0.43054-2.192 1.1118-2.6661 1.5139-1.583 1.3425-3.5101 2.7763-5.0377 3.7482-0.34475 0.21932-0.6772 0.55247-0.73879 0.74034-0.06163 0.18787-0.72436 0.95642-1.4728 1.7079-0.74847 0.75147-1.3639 1.4497-1.3676 1.5516-0.0035 0.10192-0.26084 0.46058-0.57138 0.79702-2.0819 2.2556-3.9507 5.2456-4.3068 6.8906-0.0698 0.32228-0.38291 0.9633-0.6959 1.4245-0.31298 0.4612-0.84045 1.6322-1.1722 2.6021-0.33172 0.96997-0.67924 1.8661-0.77228 1.9913-0.09305 0.12525-0.22841 0.63761-0.3008 1.1386-0.07239 0.50098-0.23416 1.5257-0.35944 2.2772-0.78891 4.7318-0.95701 7.3609-0.56054 8.7672 0.1942 0.68885 0.43143 2.3928 0.52716 3.7866 0.09574 1.3938 0.23291 2.6293 0.30481 2.7456 0.07194 0.11636 0.1861 0.66681 0.25377 1.2233 0.16552 1.3612 0.75926 2.9671 2.3525 6.3631 2.1532 4.5896 3.785 6.8926 7.2299 10.204 2.4288 2.3347 4.7348 4.0339 7.6286 5.6213 1.3151 0.72139 2.9034 1.6415 3.5296 2.0447 1.3336 0.85858 3.5176 1.8745 4.6604 2.1679 0.44265 0.11359 1.4064 0.42202 2.1417 0.68529 0.73528 0.26327 1.8112 0.58172 2.391 0.70767 0.57979 0.12595 1.4128 0.30734 1.8512 0.40308 1.2405 0.27093 10.199 0.30534 11.012 0.04224zm1.0279-2.8969c-0.19208-0.23152-0.33199-1.0434-0.36301-2.1064-0.0278-0.95134-0.07901-2.0833-0.11386-2.5156-0.06042-0.74852-0.02005-0.79507 0.84749-0.9791 2.2357-0.47428 3.7415-0.93072 5.0098-1.5186 0.75147-0.34834 1.9042-0.87111 2.5617-1.1617 0.65749-0.2906 1.3598-0.71003 1.5607-0.93206 0.20092-0.22201 0.64189-0.4644 0.97993-0.53865 0.33805-0.07421 1.0191-0.48799 1.5135-0.91942 0.49437-0.43143 1.0213-0.78638 1.1709-0.78879 0.1496-0.0024 0.71321 0.50829 1.2524 1.1349 0.54243 0.63028 1.3119 1.2488 1.7223 1.3845 1.5856 0.52433 1.3957 1.6983-0.46295 2.8624-0.52912 0.3314-0.99774 0.69433-1.0414 0.8065-0.04363 0.11216-0.55599 0.44335-1.1386 0.73595-0.5826 0.29258-1.7766 0.91002-2.6533 1.3721-1.597 0.84164-2.6212 1.2495-5.8068 2.3127-1.4965 0.49946-4.1746 1.215-4.5834 1.2246-0.07858 0.0012-0.28354-0.16616-0.45543-0.37335zm-12.951-0.28569c-3.3197-0.91599-4.068-1.1627-5.9207-1.9519-1.0646-0.4535-2.9923-1.2426-4.2839-1.7535-2.3878-0.94457-3.245-1.6371-2.8505-2.3026 0.10393-0.17532 0.55554-0.63704 1.0036-1.026 0.48511-0.42118 0.9278-1.085 1.0944-1.6411 0.15389-0.51362 0.41594-0.9861 0.58235-1.05 0.1664-0.06383 1.2623 0.34455 2.4352 0.90756 2.9556 1.4186 7.5681 2.8761 9.1021 2.8761 0.34176 0 1.1025 0.20622 1.6904 0.45825 1.1778 0.50486 1.1808 0.51965 0.53678 2.6555-0.24937 0.82708-0.2334 1.0684 0.12308 1.8589 0.22531 0.49966 0.34082 1.0198 0.2567 1.156-0.22778 0.36854-2.0909 0.27604-3.7696-0.18718zm7.3454-0.25505c-0.62031-0.24939-1.4227-1.5053-1.4238-2.2287-0.0017-1.3167 1.2248-2.0958 2.5907-1.645 0.63834 0.21068 0.87258 0.46189 1.1792 1.2647 0.38428 1.0062 0.31937 1.9636-0.17338 2.5573-0.27161 0.32727-1.4192 0.35454-2.1726 0.05167zm-4.8405-7.8222c-2.4077-0.40411-7.4781-2.0117-9.2814-2.9428-1.4791-0.76363-3.4556-2.2707-3.6111-2.7535-0.23398-0.7263 0.38754-2.1266 1.4239-3.2083 0.5422-0.56588 1.079-1.0289 1.193-1.0289 0.49594 0 0.42496-0.76127-0.14799-1.5872-0.81502-1.1749-1.1007-1.2611-1.9131-0.57756-0.37305 0.3139-0.74727 0.57118-0.8316 0.57172-0.08434 4.57e-4 -0.66138 0.46166-1.2824 1.0247-1.4593 1.3232-2.1037 1.3503-3.0707 0.12932-0.38962-0.49194-0.81352-1.196-0.942-1.5645-0.20894-0.59936-0.15837-0.74531 0.47908-1.3828 0.39197-0.39197 0.84467-0.71266 1.006-0.71266 0.16135 0 0.5661-0.21455 0.89946-0.47677 0.33336-0.26222 0.87733-0.5493 1.2088-0.63795 1.099-0.29393 1.151-0.74001 0.31328-2.6886-1.8404-4.2808-2.0809-5.1954-2.2009-8.3701-0.07221-1.909-0.21065-3.0554-0.3876-3.2093-0.30404-0.26432-1.4725-0.66734-2.5987-0.89631-1.2794-0.26011-1.8894-0.9233-1.8894-2.0541 0-0.54636 0.09994-1.2562 0.22209-1.5775 0.3168-0.83326 1.1908-0.76474 3.7177 0.29144 1.1521 0.48156 2.4534 1.0108 2.8918 1.1761 1.3542 0.51064 1.6495 0.89002 1.5014 1.9289-0.29866 2.0949-0.33719 2.6056-0.34826 4.6168-0.0077 1.3848 0.11155 2.4389 0.3476 3.0742 0.19758 0.53177 0.44429 1.428 0.54826 1.9916 0.10397 0.5636 0.45304 1.5883 0.7757 2.2772 0.32267 0.68885 0.58768 1.3621 0.5889 1.4961 8.61e-4 0.13402 0.34582 0.64638 0.76578 1.1386 0.41995 0.49222 0.92894 1.2164 1.1311 1.6092 0.53273 1.0353 3.4839 3.1587 5.5271 3.9768 3.5729 1.4306 5.7907 1.8727 9.4295 1.8795 2.5412 0.0043 3.538-0.08177 4.3267-0.37548 0.5636-0.20988 1.1539-0.38309 1.3119-0.38492 0.46864-0.0052 2.3956-0.95682 3.0892-1.5252 0.35403-0.29015 0.74132-0.52754 0.86065-0.52754 0.2332 0 2.3011-1.5091 3.05-2.2258 1.1475-1.0982 2.423-2.7214 2.5454-3.2393 0.07402-0.31322 0.26132-0.72321 0.41628-0.91108 1.4256-1.7285 2.255-8.9927 1.3625-11.935-0.36167-1.1922-0.43988-2.6067-0.16483-2.9811 0.17671-0.24053 0.95907-0.57275 3.0138-1.2798 0.68886-0.23703 1.5599-0.59033 1.9356-0.7851 0.59959-0.31081 0.79449-0.31484 1.5932-0.03289 0.71548 0.25257 0.97872 0.50175 1.2314 1.1655 0.27951 0.73439 0.27767 0.88796-0.01411 1.1798-0.33202 0.33202-3.6606 1.2326-4.5556 1.2326-0.41082 0-0.45167 0.11082-0.35676 0.96781 0.05895 0.53229 0.23784 1.6305 0.39753 2.4404 0.30843 1.5643 0.1225 3.4915-0.62591 6.4877l-0.33881 1.3564 0.70314 0.62826c0.38672 0.34554 1.2947 0.79604 2.0178 1.0011 1.7596 0.49906 2.3394 0.89295 2.3394 1.5894 0 1.0266-0.87703 1.1171-3.2198 0.33221-1.124-0.37658-2.1973-0.68468-2.3851-0.68468-0.18778 0-0.55326 0.47888-0.81216 1.0642-0.5504 1.2443-0.56713 1.2209 1.7001 2.3775 1.4414 0.7353 1.9037 1.4063 1.6542 2.4005-0.29254 1.1656-6.0777 6.5152-8.4371 7.8019-2.675 1.4588-4.3205 2.1881-5.693 2.5232-0.62623 0.15289-1.4973 0.43975-1.9356 0.63749-1.0561 0.47635-8.013 0.60117-10.475 0.18791zm-18.47-0.25459c-0.91187-0.49564-1.4078-1.4004-1.2446-2.2705 0.17435-0.92933 0.75913-1.4705 1.7656-1.6338 0.62672-0.10166 0.9246-0.0059 1.5084 0.48542 1.0022 0.84331 1.0279 2.128 0.06188 3.0941-0.73531 0.73532-1.2025 0.80786-2.0913 0.32476zm46.427-2.2613c-1.0823-0.53958-1.4541-2.4953-0.63085-3.3185 0.56322-0.56323 0.98786-0.56558 2.2067-0.01217 0.8069 0.36634 0.97912 0.56573 1.1152 1.2912 0.22755 1.213-0.24691 1.9781-1.3365 2.1552-0.46562 0.07564-1.0752 0.02362-1.3546-0.11562zm-50.501-1.4462c-0.55929-0.18015-1.1468-0.76942-2.1961-2.2026-1.1346-1.5498-1.2293-2.1991-0.42271-2.9004 0.72109-0.62698 0.71392-0.80444-0.09698-2.4021-2.3515-4.6329-3.205-6.6752-3.205-7.6693 0-1.1624 0.3058-1.4448 1.664-1.5362 1.0485-0.07058 1.6585 0.47084 1.811 1.6075 0.06412 0.47813 0.27398 1.2169 0.46633 1.6417 0.19234 0.42479 0.50746 1.3379 0.70025 2.0292 0.19279 0.69128 0.6591 1.6648 1.0362 2.1633 0.37715 0.49854 0.68858 0.98012 0.69207 1.0701 0.0077 0.19196 1.7581 2.9024 2.6072 4.0364 0.32297 0.43138 0.58693 0.94376 0.58656 1.1386-4.56e-4 0.19485-0.48064 0.61044-1.0673 0.92356-0.65951 0.352-1.2025 0.8488-1.4226 1.3016-0.38824 0.79865-0.63089 0.96669-1.153 0.7985zm54.748-3.0267c-0.58885-0.50965-1.338-1.0965-1.6648-1.3041-0.3268-0.20762-0.66947-0.48235-0.76149-0.61048-0.30583-0.42589-0.1699-1.3642 0.28116-1.9409 0.24492-0.31311 0.44758-0.6833 0.45037-0.82263 0.0026-0.13933 0.31249-0.64018 0.68822-1.113 0.37574-0.4728 0.68316-0.95459 0.68316-1.0706 0-0.11606 0.23799-0.74242 0.52888-1.3919 0.29088-0.64952 0.71329-2.2057 0.93868-3.4581 0.66162-3.6765 0.88576-4.0171 2.2643-3.4411 1.7604 0.73554 2.1343 2.2179 1.1761 4.663-0.62608 1.5976-0.57611 1.9533 0.34105 2.4276 0.82543 0.42684 1.0398 1.1122 0.57148 1.827-0.4304 0.65687-1.4456 0.74941-2.2732 0.20719-0.48702-0.31911-0.5708-0.3158-0.92297 0.03632-0.51334 0.51334-1.4857 2.064-1.4857 2.3693 0 0.1331 0.46113 0.73499 1.0247 1.3375 0.56361 0.60254 1.0247 1.2721 1.0247 1.4879 0 0.4217-1.1804 1.7237-1.5627 1.7237-0.12726 0-0.71317-0.41697-1.302-0.92661zm-29.358-4.5517c-1.2832-0.10548-2.394-0.38039-3.7574-0.92989-3.2948-1.3279-3.4911-1.5585-2.8567-3.3555 0.19348-0.54804 0.35177-1.0348 0.35177-1.0817 0-0.20846-1.0561-0.05233-2.0614 0.30469-1.0476 0.37208-1.1187 0.371-1.5548-0.02358-0.5278-0.47765-0.81052-1.5141-0.59676-2.1876 0.08124-0.2559 0.66626-0.74495 1.3001-1.0868 2.0239-1.0915 2.3536-1.2921 3.1752-1.9309 0.44294-0.34442 0.93599-0.62623 1.0957-0.62623 0.15966 0 0.90215-0.37168 1.65-0.82596 1.2474-0.75778 1.4589-0.8143 2.5619-0.68466 0.68312 0.0803 1.5127 0.03314 1.9211-0.10929 0.61437-0.21417 1.0367-0.1442 2.9056 0.48148 1.2027 0.40264 2.5578 0.7207 3.0113 0.70682 0.45349-0.01386 1.2857-0.04441 1.8493-0.06774 1.2268-0.05086 5.3464 1.0286 6.1484 1.6111 0.35505 0.25787 0.59615 0.68353 0.64066 1.131 0.06618 0.66577 0.02048 0.71758-0.63355 0.71758-0.38769 0-1.0346-0.13763-1.4377-0.30585-1.0963-0.45758-2.3834-0.65414-2.5473-0.38901-0.1912 0.30936 0.15766 0.91844 1.2468 2.1768 0.54944 0.63482 0.90931 1.281 0.90931 1.6327 0 0.86599-1.4582 2.1435-3.6799 3.2237-3.1579 1.5355-5.6216 1.9491-9.6417 1.6187zm-32.605-11.587c-0.77176-0.3504-0.99796-0.59745-1.1943-1.3044-0.35237-1.2689-0.30314-1.7092 0.26879-2.4044 0.35091-0.42652 0.81681-0.66807 1.4856-0.77025 0.92098-0.14069 1.0221-0.0987 1.8451 0.76644 0.97964 1.0298 1.2654 1.979 0.90603 3.0099-0.42547 1.2205-1.6149 1.4729-3.3112 0.70274zm65.602-2.3815c-1.0637-1.0637-1.078-2.1621-0.04037-3.1098 0.83251-0.76038 1.0327-0.79464 2.0817-0.35633 1.1848 0.49505 1.8062 1.4416 1.661 2.5302-0.15322 1.1486-0.81641 1.7102-2.0196 1.7102-0.72948 0-1.0609-0.15251-1.6827-0.77424zm-28.995-1.4198c-0.25959-0.33001-0.46859-0.66304-0.46447-0.74009 0.0043-0.07703 0.30648-0.65245 0.67191-1.2787 0.36542-0.62623 0.87674-1.5485 1.1362-2.0495 0.67094-1.2952 1.022-1.8747 1.4129-2.3326 0.18788-0.22004 0.71535-1.0803 1.1721-1.9116 0.86583-1.5758 1.1303-1.7904 2.2057-1.7904 0.96866 0 3.4133 2.3748 3.4133 3.3158 0 0.94625-1.0455 1.5693-2.3416 1.3954-0.90768-0.12174-1.9588 0.25216-2.9054 1.0335-0.45182 0.37294-1.3568 1.8532-1.3568 2.2193 0 0.45295 1.4693 0.16114 3.9851-0.79145 2.6347-0.9976 3.5176-1.1685 4.1869-0.81033 1.0464 0.56004 0.18601 2.0633-1.181 2.0633-0.41331 0-0.85432 0.10284-0.98 0.22854-0.12569 0.12569-0.83789 0.38284-1.5827 0.57143-0.74476 0.1886-1.7128 0.4837-2.1511 0.65578-0.9055 0.35546-3.2615 0.82146-4.1531 0.82146-0.37263 0-0.77288-0.22487-1.068-0.60001zm-10.719-0.28801c-0.18788-0.10506-1.3388-0.24732-2.5576-0.31615-1.7369-0.09809-2.3588-0.22677-2.8761-0.59516-1.2352-0.87952-0.96021-2.4644 0.32589-1.8784 0.90272 0.4113 3.6443 0.60353 3.8504 0.26998 0.30458-0.49282-0.39367-1.3817-1.7365-2.2105-1.6716-1.0318-1.8874-1.7162-0.97917-3.1058 0.78878-1.2069 1.9016-2.1852 2.4992-2.1972 0.53019-0.01062 1.4739 0.58693 1.4739 0.93327 0 0.12845 0.46017 0.86558 1.0226 1.6381 0.56242 0.77248 1.5316 2.1044 2.1538 2.9598 0.97122 1.3354 2.0612 3.58 2.0612 4.2448 0 0.41392-0.90995 0.47442-1.6192 0.10766-0.67437-0.34873-0.79069-0.34964-1.4993-0.01169-0.84046 0.40079-1.5891 0.45784-2.1191 0.16148zm-24.295-2.9719c-0.87328-0.53248-1.2254-1.1307-1.1564-1.9647 0.03374-0.40805-0.09653-0.70699-0.37966-0.87104-1.0687-0.61921-1.293-1.0269-1.1649-2.1166 0.13364-1.1364 0.69126-2.2669 1.31-2.656 0.29654-0.18646 0.67376-0.11824 1.594 0.28828 0.66305 0.2929 1.513 0.58632 1.8887 0.65204 0.95038 0.16623 1.6403 0.66332 1.7991 1.2963 0.07401 0.29498-0.07092 1.2016-0.32202 2.0147-0.25114 0.81311-0.48389 1.8729-0.51719 2.3551-0.03332 0.48219-0.14088 1.0048-0.23903 1.1614-0.2743 0.43746-1.9937 0.33999-2.8128-0.15946zm31.626 0.04561c-0.10958-0.21919-0.56423-1.372-1.0103-2.5618-2.559-6.8253-2.5768-6.9117-1.5391-7.4656 0.73332-0.39144 4.6025-0.19606 5.7689 0.29131 1.5105 0.63113 1.5663 1.5203 0.27163 4.3278-1.1632 2.5225-2.1506 4.81-2.2853 5.2945-0.17075 0.61432-0.92023 0.68509-1.2058 0.11386zm30.844-0.70464c-0.40411-0.44654-1.5123-3.6591-1.5123-4.3841 0-0.80984 0.41872-1.2911 1.6782-1.9288 1.1674-0.59112 1.2764-0.60605 2.2734-0.31167 0.82496 0.24358 1.0967 0.4512 1.2804 0.97826 0.35833 1.0279 0.27907 1.9512-0.22221 2.5884-0.25049 0.31845-0.45544 0.75631-0.45544 0.97302 0 0.59585-0.85006 1.5538-1.8163 2.0467-0.82293 0.41983-0.87895 0.42157-1.2259 0.03821zm-48.315-4.1199c-1.212-0.53983-4.2441-2.467-4.6045-2.9266-0.41474-0.52893-0.33474-1.6779 0.15794-2.2685 0.64352-0.7714 1.4772-0.63894 3.2248 0.51237 0.8555 0.56361 1.7003 1.0247 1.8773 1.0247 0.3781 0 1.5146-1.4169 1.5146-1.8884 0-0.17859-0.39404-0.77465-0.87565-1.3246-0.4816-0.54993-0.99397-1.2237-1.1386-1.4973-0.71725-1.3567 0.17678-2.9798 1.4722-2.6726 0.93153 0.22089 1.4738 0.78415 3.0367 3.1544 1.8262 2.7695 1.845 3.3102 0.16832 4.8364-0.66456 0.60493-1.5463 1.6379-1.9594 2.2954-0.84979 1.3527-1.2783 1.4652-2.8738 0.75461zm34.157-0.73496c-1.2587-1.1052-1.1163-1.4133 1.8659-4.0354 2.2856-2.0096 2.7373-2.3151 3.245-2.1949 0.92475 0.219 1.6397 0.84633 2.2782 1.9991 0.70008 1.2638 0.56748 1.6464-0.80854 2.3328-5.6601 2.8235-5.5598 2.7946-6.5806 1.8983zm-4.5098-4.3253c-0.99125-0.87151-1.0079-1.7203-0.05801-2.9643 0.44589-0.58396 1.1622-1.6593 1.5919-2.3896 0.42966-0.73033 1.0887-1.6205 1.4645-1.9782 0.63739-0.60658 0.73794-0.63225 1.4961-0.38203 0.9193 0.3034 1.5862 1.0427 1.9586 2.1712 0.3229 0.9784-0.09641 1.8705-1.3056 2.7775-0.46778 0.3509-1.3645 1.1774-1.9928 1.8366-1.3962 1.465-2.2568 1.7184-3.1549 0.9288zm-38.863-0.04872c-1.0916-0.36236-2.2283-0.98849-3.245-1.7875-0.96183-0.75588-1.1222-1.6058-0.48618-2.5765 0.52261-0.7976 1.2243-0.7064 1.9948 0.25926 0.36009 0.45128 0.98818 0.95986 1.3958 1.1302 0.95961 0.40095 2.1566 1.4128 2.3847 2.0158 0.41932 1.1086-0.41441 1.4997-2.0441 0.95871zm54.192-0.89045c-0.68771-0.5499-1.361-1.602-1.361-2.1268 0-0.39045 0.20328-0.62047 0.75039-0.84907 0.41273-0.17245 1.1557-0.6857 1.651-1.1406 1.4312-1.3144 2.6128-0.96295 3.2601 0.9696 0.3879 1.1581 0.31983 1.6052-0.27898 1.8329-0.29603 0.11255-0.5967 0.35696-0.66813 0.54314-0.07143 0.18617-0.69041 0.50144-1.3755 0.7006-1.471 0.42764-1.5283 0.42968-1.9779 0.07023zm-36.847-1.7226c-0.52182-0.48174-0.94877-0.99306-0.94877-1.1363s-0.46999-0.9936-1.0444-1.8898c-0.57442-0.89617-1.0999-1.9716-1.1678-2.3899-0.10528-0.6488-0.0439-0.79045 0.41818-0.9643 0.97908-0.36838 1.7193 0.2586 2.7314 2.3135 2.2766 4.6224 2.2809 6.1619 0.01146 4.0667zm15.402-0.61146c-0.15141-0.15142-0.93904-0.25698-4.4628-0.59812-2.2431-0.21716-3.0955-0.21236-4.2852 0.0241l-1.4851 0.29519-0.67607-0.64771c-0.37183-0.35624-0.73992-0.90216-0.81797-1.2132-0.07807-0.311-0.48566-1.3094-0.9058-2.2188-0.42014-0.90932-0.82612-2.1074-0.9022-2.6624-0.12208-0.89066-0.07488-1.0504 0.4018-1.3608 0.82274-0.53577 3.8062-1.2644 5.1753-1.2639 0.67065 2.23e-4 1.5123-0.06395 1.8704-0.14256 0.35807-0.07867 1.6539-0.02453 2.8796 0.12034 3.7972 0.4487 6.5463 1.2337 6.8202 1.9476 0.14527 0.37858-0.30209 2.1712-0.76344 3.0591-0.16268 0.31311-0.29642 0.68904-0.29719 0.83539-0.0026 0.43437-1.5612 3.5567-1.8753 3.756-0.34193 0.21701-0.51132 0.23445-0.67615 0.06963zm-30.625-1.0821c-1.119-0.34011-1.9271-1.3278-2.0615-2.5196-0.09942-0.88196-0.03383-1.1065 0.47111-1.6113 0.83806-0.83806 2.1398-0.81188 3.0751 0.06188 0.84428 0.78868 1.0458 1.4976 0.79134 2.7841-0.23372 1.1819-1.0672 1.6524-2.2761 1.2849zm48.789-2.2004c-1.7079-1.1259-1.6681-3.1517 0.07599-3.8742 1.5597-0.64606 3.4212 0.95044 3.1036 2.6618-0.08764 0.4722-0.32026 1.0379-0.51694 1.2571-0.47849 0.53322-1.8202 0.51069-2.6627-0.04476zm-44.062-2.2633c-0.6508-1.0142-1.2154-1.5005-3.0341-2.6137-0.82464-0.50474-0.82468-1.3222-7e-5 -1.9709 0.90343-0.71064 1.973-0.48653 2.8823 0.60394 2.0719 2.4846 2.8103 4.1485 2.139 4.8198-0.58468 0.58468-1.2552 0.30153-1.9872-0.83918zm38.626-1.2524c-0.59801-0.54776-0.84151-0.9611-0.84151-1.4284 0-0.67911 1.2021-2.7085 2.1889-3.6953 0.52735-0.52735 0.59411-0.53784 1.5068-0.23663 1.0823 0.3572 1.9003 1.0197 2.0875 1.6907 0.15576 0.5583 0.03227 0.73715-1.0836 1.5695-0.55617 0.41484-1.0487 1.0631-1.3397 1.7635-0.388 0.93363-0.55579 1.1075-1.0686 1.1075-0.3737 0-0.93284-0.29727-1.4498-0.7708zm-33.925-1.9367c-0.4401-0.48714-0.87348-1.1167-0.96307-1.3989-0.0896-0.28228-0.45876-0.97974-0.82036-1.5499s-0.65746-1.2037-0.65746-1.4079c0-0.48123 0.93934-1.3614 1.4529-1.3614 1.4375 0 3.0888 2.2266 3.4532 4.6562 0.12644 0.84318 0.07711 1.1443-0.2459 1.5012-0.62301 0.68842-1.3263 0.54924-2.2193-0.43921zm5.6873-3.2233c-0.43357-0.50654-0.84865-1.1982-0.9224-1.5371-0.07376-0.33887-0.28404-1.0974-0.46732-1.6856-0.31203-1.0014-0.30455-1.106 0.1175-1.6425 0.27698-0.35212 0.77614-0.62499 1.2948-0.7078 0.46425-0.07411 1.0359-0.24033 1.2704-0.36938 0.23451-0.12903 0.97552-0.29128 1.6467-0.36055 1.6698-0.17234 1.9795 0.10833 1.7933 1.6254-0.11869 0.96727-0.03993 1.3799 0.47804 2.5058l0.62013 1.3478-0.51852 0.41988c-0.28519 0.23094-0.78738 0.47351-1.116 0.53905-0.3286 0.06559-1.0586 0.26969-1.6222 0.45368-1.4801 0.48318-1.7001 0.43287-2.5746-0.58871zm19.154 0.68244c-0.21189-0.12358-1.1648-0.41949-2.1175-0.65758-0.95276-0.23809-1.8703-0.5474-2.0389-0.68738-0.51083-0.42396-0.61776-1.6737-0.2358-2.7563 0.19397-0.54975 0.32991-1.4391 0.30211-1.9762-0.07411-1.4317 0.21172-1.6065 2.1982-1.3449 0.50098 0.06601 1.2839 0.12587 1.7398 0.13308 1.0047 0.01593 3.5016 1.7435 3.852 2.6651 0.31803 0.83647 0.05026 1.9564-0.65877 2.7556-0.33348 0.37588-0.78088 1.0038-0.99423 1.3953-0.40958 0.7516-1.2403 0.94369-2.0468 0.47332zm-9.976-2.4319c-1.6003-0.81075-2.0904-3.0166-0.9284-4.1787 0.77553-0.77552 1.3586-0.82216 2.6949-0.21557 1.4935 0.67793 1.8962 2.4193 0.90191 3.8999-0.62374 0.92877-1.4931 1.0898-2.6684 0.49439z" fill="#f9f9f9" stroke-width=".22772"/>
</svg>
