<?xml version="1.0" encoding="UTF-8"?>
<svg width="100mm" height="100mm" version="1.1" viewBox="0 0 100 100" xmlns="http://www.w3.org/2000/svg" xmlns:cc="http://creativecommons.org/ns#" xmlns:dc="http://purl.org/dc/elements/1.1/" xmlns:rdf="http://www.w3.org/1999/02/22-rdf-syntax-ns#">
 <metadata>
  <rdf:RDF>
   <cc:Work rdf:about="">
    <dc:format>image/svg+xml</dc:format>
    <dc:type rdf:resource="http://purl.org/dc/dcmitype/StillImage"/>
    <dc:title/>
   </cc:Work>
  </rdf:RDF>
 </metadata>
 <rect x="1.4563" y="1.4563" width="97.087" height="97.087" ry="30.091" fill="#1b1bac" stroke="#1a1a1a" stroke-linecap="round" stroke-linejoin="round" stroke-width="2.9126"/>
 <path d="m66.626 88.101c-0.69828-0.28176-1.2696-0.90823-1.2696-1.3921 0-0.48392-1.714-3.1877-3.8088-6.0084-3.7747-5.0826-3.8591-5.1286-9.4231-5.1297-5.2271-1e-3 -10.129-1.9089-10.129-3.9423 0-0.42843 1.6692-1.2024 3.7093-1.7199 7.1425-1.8117 6.8061-2.9557-5.3169-18.078-6.0987-7.6077-12.119-15.777-13.378-18.153-1.6818-3.1737-5.3057-18.034-5.3265-21.842-0.01323-2.4128 10.915 5.303 17.384 12.274 1.641 1.7684 6.6217 10.612 11.068 19.652 4.4465 9.0402 8.5517 16.725 9.1227 17.078 1.8362 1.1348 4.8874-0.51162 6.9318-3.7404 1.9806-3.1281 1.9959-3.1325 3.1853-0.91008 1.2644 2.3626 0.58309 7.7552-1.1123 8.803-2.6438 1.634-2.7387 5.2846-0.2642 10.172 1.3722 2.7104 3.1673 5.3043 3.9891 5.7642 1.8022 1.0085 1.9654 4.9363 0.27546 6.6263-1.2484 1.2484-3.384 1.4553-5.6371 0.54616zm1.5505-8.548c0.43896-2.2793-3.6078-7.0541-5.3967-6.3676-2.0027 0.76851-1.8804 4.328 0.22882 6.6586 1.9721 2.1791 4.722 2.0243 5.1679-0.29105zm-6.8829-10.113c0-3.1611-1.1643-5.0431-3.12-5.0431-2.845 0-4.212 3.2936-2.4256 5.844 1.7558 2.5067 5.5456 1.9594 5.5456-0.80095zm-9.8363-14.885c-1.5729-2.6645-3.3168-5.6519-3.8755-6.6387-0.55862-0.98682-3.8425-6.2523-7.2975-11.701-7.4973-11.824-12.406-17.839-12.467-15.275-0.08156 3.4409 16.793 31.287 23.772 39.229 3.3268 3.7856 3.24 0.09868-0.1322-5.6139z" fill="#f9f9f9" stroke-width="1.0157"/>
</svg>
